# xmcd CD database file
#
# Track frame offsets:
#	150
#	24925
#	44338
#	66034
#	79986
#	102288
#	119112
#	132510
#	148657
#	166894
#
# Disc length: 2400 seconds
#
# Revision: 2
# Processed by: cddbd v1.5.2PL0 Copyright (c) Steve Scherf et al.
# Submitted via: CDex 1.70beta2
#
DISCID=8c095e0a
DTITLE=樹里からん - LOVER’S JAZZ - OMCZ-1039
DYEAR=2011
DGENRE=Classical
TTITLE0=Do You Really Want to Hurt Me
TTITLE1=Every Breath You Take
TTITLE2=My Love
TTITLE3=Love
TTITLE4=Just the Way You Are
TTITLE5=You Can't Hurry Love
TTITLE6=The Secret Marriage
TTITLE7=I Saw the Light
TTITLE8=Open Arms
TTITLE9=Over the Rainbow
EXTD=YEAR: 2011
EXTT0=
EXTT1=
EXTT2=
EXTT3=
EXTT4=
EXTT5=
EXTT6=
EXTT7=
EXTT8=
EXTT9=
PLAYORDER=
